<svg xmlns="http://www.w3.org/2000/svg" viewBox="0 0 1119 682"><defs><style>.cls-1{opacity:0.9;}.cls-2,.cls-5{fill:#858585;}.cls-3,.cls-4{fill:none;stroke:#858585;stroke-miterlimit:10;}.cls-3{stroke-width:4px;}.cls-4{stroke-width:9px;}.cls-5{font-size:17px;font-family:Arial-BoldMT, Arial;font-weight:700;}.cls-6{letter-spacing:-0.02em;}.cls-7{letter-spacing:-0.04em;}.cls-8{letter-spacing:-0.07em;}.cls-9{fill:#35349b;}</style></defs><g id="Layer_1" data-name="Layer 1"><g class="cls-1"><path class="cls-2" d="M1035.72,483.37c.15-1.49.54-5.44-1.84-7.88s-6.5-2.13-7.53-2.07c-11.56.67-281.36.85-292.43.05-.89-.06-4.69-.46-6.95,1.83-2,2.07-1.84,5.33-1.74,6.74,1.72,23.83-1.49,47.85.32,71.66.12,1.6.34,5.14-1.86,7.3s-5.87,1.86-7.33,1.73l-50.58-.26s-1,17,.43,18c1.06.77,2,.08,2.86.1,146,2.88,292.54-12,438,.27,1.29.11,6.17.64,9.09-2.29s2.32-8.26,2.21-9.3c-1.71-17-1.72-539.3,0-555.62.1-1,.81-6-2.11-9s-7.86-2.35-8.64-2.29C1093,3.53,26.18,3.51,11.58,2.43c-.78-.06-5.76-.66-8.67,2.3s-2.24,7.94-2.13,9c1.83,18.18,4,537.76.17,555.61-.18.83-1.53,6,1.13,8.92,2.2,2.43,6.11,2.15,6.87,2.13,8.17-.26,491.51,1.86,492.53-.34l.3-17.58-79.7.24c-1.21.09-4.52.34-6.49-1.7s-1.62-5-1.51-6.37c1-11.74-.28-23.58.34-35.34.18-3.48.31-6.68-1.8-9-3-3.28-8.64-2.58-9.77-2.48-9.88.88-164.82-.3-382.07-2.37L18.36,151.71c.65-33.44.81-57.35-.05-66-.15-1.44-.67-5.95,2-8.73,1.67-1.72,4.5-2.3,9-2.29q190.32.45,380.65.21a59.69,59.69,0,0,1,6.69,0c5.41.62,7.32-1.57,7.13-7-.34-10.19-.09-20.4-.09-30.6C423.67,20.19,443.3,21,443.3,21l219.36-.09q43,.3,86.05,0c5.52,0,7,1.93,7,7.21q-.24,63.58,0,127.16c0,5.82-1.72,7.64-7.58,7.58-28.36-.26-56.73-.34-85.09,0-6.81.09-7.7-2.62-7.63-8.37.27-21.35.12-42.7.09-64,0-4.55,1.48-11.25-5-11.24-7.37,0-4.28,11.29-4.28,11.29.18,39.53.18,67.87-.36,74-.08,1-.44,4.33,1.58,6.33,1.83,1.82,4.75,1.61,5.66,1.56,8.05-.41,98-.6,106.13,0,.83.05,3.7.32,5.35-1.43,1.45-1.52,1.28-3.85,1.2-5-.59-8.26-.11-16.56-.26-24.84-.05-2.81,0-5,1.38-7,2.07-2.94,5.8-3.63,7.31-3.89,121.35-20.8,172.38-18.08,172.38-18.08,62.45,3.33,50.49,8,86.26,8.95,20.09.53,39.18,9,58.83,13.16,1.19.25,4.8,1,6.84,4s1.46,6.52,1.38,7.23c-1.46,12.5-.61,401.12,0,410.33,0,.63.33,3.64-1.51,5.46s-4.67,1.51-5.71,1.44c-7.73-.57-39.17-.63-48.74.05-1.31.09-4.65.37-6.74-1.68s-1.87-5.61-1.76-7M1068.76,331l0,0M983.15,483.62c12.62,0,22.68.41,32.7-.13,7.31-.4,10.06,1.61,9.84,9.47q-.82,30.09,0,60.23c.19,7.56-2.07,9.62-9.58,9.55-38.65-.37-77.31-.17-116-.17-52.28,0-104.56-.1-156.84.13-6.29,0-8.15-1.85-8-8.1.36-20.39.53-40.81,0-61.19-.24-8.21,2.55-10,10.28-10,72.36.28,144.73.16,217.09.19M765.73,72.4c0-14.63.1-29.26-.06-43.89-.06-4.79.63-7.71,6.59-7.63,21,.27,42,.18,63,0,4.32,0,6.31,1.17,6.28,5.88q-.22,37.7,0,75.38c0,4.94-2.1,6.51-6.68,7.11a463.21,463.21,0,0,0-60.69,12.12c-7.57,2.06-8.68-.43-8.52-7C766,100.39,765.72,86.39,765.73,72.4Zm334.07-.53c0,15.29-.3,30.6.13,45.88.2,7.17-2.53,7.93-8.49,6.19a456.84,456.84,0,0,0-57.8-12.68c-5.07-.79-6.93-2.75-6.92-8,0-24.85-.08-49.7-.62-74.55-.14-6.58,2.39-7.94,8.32-7.85,19.12.29,38.25.32,57.36,0,6.15-.11,8.35,1.64,8.16,8C1099.51,43.18,1099.8,57.53,1099.8,71.87ZM1016.21,64h1c0,12.09-.32,24.19.12,36.27.25,6.55-1.94,8.2-8.23,7.24-21.09-3.19-42.39-4.15-63.67-5.08-5-.22-7.35-1.6-7.28-7.22.27-22.59.22-45.18,0-67.78,0-5,1.74-6.57,6.66-6.53,21.32.2,42.64.27,64,0,6-.08,7.6,2.25,7.46,7.83C1016,40.45,1016.21,52.22,1016.21,64ZM851,63.07c0-11.79.16-23.59-.08-35.38-.1-4.78,1.2-6.85,6.4-6.8q32.5.33,65,0c5.08-.05,6.54,1.84,6.5,6.72q-.29,33.95,0,67.89c0,5-1.83,6.42-6.69,6.65-21,1-42,2.2-62.93,3.84-6.3.5-8.57-1-8.35-7.54C851.29,86.67,851,74.87,851,63.07ZM341.78,65.39c-22.28,0-44.55-.16-66.82.11-5.67.06-8-1.41-7.7-7.45.44-10.16.32-20.36,0-30.54-.14-5,1.56-6.63,6.55-6.61q66.82.21,133.65,0c5.81,0,6.86,2.44,6.72,7.44-.27,9.85-.37,19.73,0,29.58.24,5.84-1.7,7.7-7.56,7.62C385.06,65.21,363.42,65.39,341.78,65.39Zm-250,497.18c-21.66,0-43.33-.27-65,.16-6.85.14-8.78-2-8.41-8.61.54-9.53.33-19.12.06-28.67-.13-5,.89-7.5,6.71-7.47q66,.28,131.91,0c5.62,0,7,2.09,6.88,7.28-.3,10.18-.38,20.4,0,30.57.23,5.67-2,6.91-7.19,6.85C135.11,562.43,113.45,562.57,91.78,562.57ZM82.49,65.39c-18.8,0-37.6-.18-56.4.11-5.64.09-8-1.34-7.69-7.42.46-10.17.34-20.39,0-30.57-.14-5,1.5-6.64,6.52-6.62q57.36.24,114.71,0c5.78,0,6.9,2.37,6.75,7.41-.28,9.87-.38,19.76,0,29.62.25,5.86-1.7,7.71-7.57,7.61C120.09,65.19,101.29,65.39,82.49,65.39ZM347.6,562.57c-16.88,0-33.77-.15-50.66.09-5.14.08-7.5-1.12-7.28-6.82.4-10.18.32-20.4,0-30.58-.15-5.23,1.4-7.31,7-7.28q50.65.3,101.32,0c5.79,0,6.9,2.46,6.76,7.48-.26,9.87-.39,19.76.05,29.62.25,5.82-1.5,7.76-7.48,7.62C380.75,562.32,364.17,562.57,347.6,562.57ZM206.84,65.39c-14.65,0-29.31-.19-44,.1-5.36.11-7.3-1.59-7.12-7,.36-10.18.24-20.38,0-30.57-.09-4.49.71-7,6.15-7q44.9.3,89.81,0c4.48,0,6.21,1.48,6.12,6.05-.23,10.5-.32,21,0,31.52.19,5.5-1.82,7.11-7.14,7C236.14,65.2,221.49,65.39,206.84,65.39Zm20,497.18c-15.57,0-31.15-.11-46.73.07-4.53.05-7-.7-6.86-6.14.37-10.79.27-21.61,0-32.42-.09-4.54,1.55-6.08,6.07-6.06q47.21.19,94.42,0c5.08,0,6.59,2,6.47,6.78-.24,10.49-.3,21,0,31.47.16,5.17-1.91,6.47-6.7,6.4C258.05,562.43,242.47,562.57,226.89,562.57Z"/><path class="cls-3" d="M501.49,580.73l-.19,99.56s81.8-15.54,81.78-100.54"/><path class="cls-3" d="M665.55,580.73l.18,99.56S583.93,664.75,584,579.75"/><rect class="cls-3" x="501.52" y="564.73" width="164" height="15"/><rect class="cls-4" x="120.42" y="178.92" width="413" height="33" rx="5.26"/><rect class="cls-4" x="567.92" y="103.42" width="65" height="65" rx="5.26"/><rect class="cls-4" x="937.92" y="187.42" width="65" height="232" rx="5.26"/><rect class="cls-4" x="120.42" y="314.92" width="413" height="33" rx="5.26"/><rect class="cls-4" x="120.92" y="439.42" width="413" height="33" rx="5.26"/><text class="cls-5" transform="translate(115.52 140.32)">ANAQUE<tspan class="cls-6" x="73.67" y="0">L</tspan><tspan x="83.75" y="0"> </tspan><tspan x="0" y="20.4">ELECTRÓNICOS</tspan></text><text class="cls-5" transform="translate(440.98 111.32)">MOSTRADOR<tspan x="37.44" y="20.4">JOYERÍ</tspan><tspan class="cls-7" x="99.79" y="20.4">A</tspan></text><text class="cls-5" transform="translate(933.42 151.32)">CAJAS<tspan class="cls-6" x="57.62" y="0" xml:space="preserve"> Y</tspan><tspan class="cls-8" x="0" y="20.4">V</tspan><tspan x="10.08" y="20.4">ALUACIÓN</tspan></text><text class="cls-5" transform="translate(725.52 461.32)">SANI<tspan class="cls-8" x="40.62" y="0">T</tspan><tspan x="49.74" y="0">ARIOS</tspan></text><text class="cls-5" transform="translate(498.26 551.32)">ENTRAD<tspan class="cls-7" x="70.83" y="0">A</tspan></text><text class="cls-5" transform="translate(115.52 277.32)">ANAQUE<tspan class="cls-6" x="73.67" y="0">L</tspan><tspan x="83.75" y="0"> </tspan><tspan x="0" y="20.4">HERRAMIEN</tspan><tspan class="cls-8" x="102.95" y="20.4">T</tspan><tspan x="112.07" y="20.4">AS</tspan></text><text class="cls-5" transform="translate(115.52 402.32)">ANAQUE<tspan class="cls-6" x="73.67" y="0">L</tspan><tspan x="83.75" y="0"> </tspan><tspan x="0" y="20.4">ELECTRODOMESTICOS</tspan></text></g><path class="cls-9" d="M60.78,286.19v23.33H31.62V286.19H60.78m2.92-5.83h-35a2.91,2.91,0,0,0-2.92,2.91v29.17a2.92,2.92,0,0,0,2.92,2.92h35a2.92,2.92,0,0,0,2.92-2.92V302.23L78.28,313.9V281.81L66.62,293.48V283.27A2.91,2.91,0,0,0,63.7,280.36Z"/><path class="cls-9" d="M41.87,301.48l-1.93,5.85H37.45l6.32-18.59h2.9L53,307.33H50.45l-2-5.85ZM48,299.61l-1.82-5.35c-.41-1.22-.69-2.32-1-3.4h-.06c-.27,1.11-.58,2.24-.93,3.37l-1.83,5.38Z"/><path class="cls-9" d="M610.1,60.48H586.77V31.31H610.1V60.48m5.84,2.92v-35A2.92,2.92,0,0,0,613,25.48H583.85a2.91,2.91,0,0,0-2.91,2.92v35a2.91,2.91,0,0,0,2.91,2.91h10.21L582.4,78h32.08L602.81,66.31H613A2.91,2.91,0,0,0,615.94,63.4Z"/><path class="cls-9" d="M605.85,54.77a11.9,11.9,0,0,1-4.91.88c-5.24,0-9.18-3.31-9.18-9.41,0-5.82,3.94-9.76,9.71-9.76a10,10,0,0,1,4.41.82l-.58,2a8.77,8.77,0,0,0-3.75-.77c-4.36,0-7.26,2.79-7.26,7.67,0,4.55,2.63,7.47,7.15,7.47a9.63,9.63,0,0,0,3.92-.77Z"/><path class="cls-9" d="M1048.56,302.24V278.91h29.16v23.33h-29.16m-2.92,5.84h35a2.92,2.92,0,0,0,2.92-2.92V276a2.91,2.91,0,0,0-2.92-2.91h-35a2.91,2.91,0,0,0-2.92,2.91V286.2l-11.66-11.67v32.09L1042.72,295v10.21A2.92,2.92,0,0,0,1045.64,308.08Z"/><path class="cls-9" d="M1055.83,282a32,32,0,0,1,4.81-.37c3.25,0,5.56.76,7.1,2.19a8.06,8.06,0,0,1,2.47,6.29,9.26,9.26,0,0,1-2.53,6.81c-1.63,1.64-4.34,2.52-7.74,2.52a36.73,36.73,0,0,1-4.11-.2Zm2.26,15.49a13.65,13.65,0,0,0,2.29.13c4.83,0,7.46-2.7,7.46-7.43,0-4.14-2.31-6.76-7.1-6.76a12.9,12.9,0,0,0-2.65.23Z"/><path class="cls-9" d="M671,522.13H694.3V551.3H671V522.13m-5.84-2.91v35a2.91,2.91,0,0,0,2.92,2.91h29.17a2.91,2.91,0,0,0,2.91-2.91v-35a2.91,2.91,0,0,0-2.91-2.92H687l11.66-11.67H666.59l11.67,11.67H668.05A2.92,2.92,0,0,0,665.13,519.22Z"/><path class="cls-9" d="M687.92,537.3h-7.23V544h8v2H678.29V527.43h10v2h-7.64v5.88h7.23Z"/><path class="cls-9" d="M63.64,56.67,43.8,69,28.45,44.15,48.29,31.87l15.35,24.8m6.5-.59L51.72,26.32a2.92,2.92,0,0,0-4-.94L22.9,40.73a2.91,2.91,0,0,0-.94,4L40.37,74.5a2.92,2.92,0,0,0,4,1l8.68-5.37L49.29,86.14,76.57,69.25,60.51,65.47l8.68-5.37A2.93,2.93,0,0,0,70.14,56.08Z"/><path class="cls-9" d="M36.64,45.81a22.53,22.53,0,0,1,3.52-2.64c2-1.26,3.57-1.72,5.05-1.54a3.94,3.94,0,0,1,3,2,4.42,4.42,0,0,1-.53,5.13l0,0a4.78,4.78,0,0,1,5.71,1.94,5,5,0,0,1,.63,4c-.48,1.69-2,3.26-4.56,4.86a27.84,27.84,0,0,1-3.28,1.77Zm6,5.21,1.86-1.15c2.16-1.33,2.73-3.24,1.78-4.77-1.15-1.85-3-1.71-5.07-.43a10,10,0,0,0-1.72,1.26Zm4.69,7.58a12.47,12.47,0,0,0,1.77-1c2.12-1.31,3.58-3.29,2.16-5.59-1.34-2.15-3.74-1.9-6-.52l-1.69,1Z"/></g></svg>