<svg id="Layer_1" data-name="Layer 1" xmlns="http://www.w3.org/2000/svg" viewBox="0 0 495 417.52"><defs><style>.cls-1{fill:#fffefd;}.cls-2{fill:#293579;}.cls-3{fill:#e42926;}.cls-4{fill:#f9c922;}</style></defs><path class="cls-1" d="M433.42,272.73q-23.84,0-47.65,0c-15.21,0-30.42-.05-45.63,0-2.33,0-2.95-.68-2.86-2.93.18-4,0-8.09.08-12.13a6.84,6.84,0,0,0-3-6.16c-.34-.25-.95-.35-.8-.92s.85-.5,1.33-.5c2.17,0,4.34-.06,6.51,0,7.81.31,14.23-2.61,19.67-8.11,6.31-6.37,10.33-14.06,13.34-22.36,5.43-15,6.47-30.53,5.63-46.28,0-.72.21-1.72-.62-2s-1.55.5-2.05,1.12c-3.52,4.44-8.09,5.63-13.66,5.6-27.2-.13-54.39.1-81.58.12-19.78,0-39.56-.08-59.34-.17-2.06,0-4.07-.06-6-1.37-1.6-1.1-1.16.79-1.14,1.37a112.74,112.74,0,0,1-.27,15.27c-1.45,14.51-4.68,28.5-12.74,41-4.44,6.87-10,12.48-18.1,15.35,7.22.6,14.42.42,21.61.45,7.34,0,14.68,0,22,0h66c-.06,1.12-.76,1.24-1.22,1.56a6.49,6.49,0,0,0-2.82,5.56c0,13.19,0,26.38,0,39.56a7.36,7.36,0,0,0,7.34,7.37q5.82,0,11.63,0a54,54,0,0,1,6.36,0l.81.06H329a8.45,8.45,0,0,0,6.78-2.89,2.91,2.91,0,0,1,2.39-1l78,0c.42,0,.92-.27,1.28.06,3.24-4.76,6.36-9.59,9.29-14.63,2.64-4.53,5.53-8.91,8.39-13.3A5.21,5.21,0,0,1,433.42,272.73Z"/><path class="cls-2" d="M175.47,367.49c-2.73-.9-5.5-1.72-8.21-2.69-25-9-47.83-21.8-67.87-39.33-18-15.69-32.4-34.15-42.45-55.85a142.53,142.53,0,0,1-13.37-69.16A146.25,146.25,0,0,1,65.22,132C80.41,107.13,101,87.66,125.63,72.31a216.62,216.62,0,0,1,52.92-23.65,236.88,236.88,0,0,1,57-9.56,241.86,241.86,0,0,1,69.28,6.68,220.13,220.13,0,0,1,49.5,18.5c27.83,14.5,51.43,33.94,69.46,59.83a149.4,149.4,0,0,1,11.86,20.26c9.77,20.16,15.15,41.37,15.14,63.85A143.41,143.41,0,0,1,439.61,264c-1,2.28-2.13,4.47-2.94,6.79-.6,1.72-1.69,2-3.25,2q-23.84,0-47.65,0c-15.21,0-30.42-.05-45.63,0-2.33,0-2.95-.68-2.86-2.93.18-4,0-8.09.08-12.13a6.84,6.84,0,0,0-3-6.16c-.34-.25-.95-.35-.8-.92s.85-.5,1.33-.5c2.17,0,4.34-.06,6.51,0,7.81.31,14.23-2.61,19.67-8.11,6.31-6.37,10.33-14.06,13.34-22.36,5.44-15,6.47-30.53,5.63-46.28,0-.72.21-1.72-.62-2s-1.55.5-2.05,1.12c-3.52,4.44-8.09,5.63-13.66,5.6-27.2-.13-54.39.1-81.58.12-19.78,0-39.56-.08-59.34-.17-2.06,0-4.07-.06-6-1.37-1.6-1.1-1.16.79-1.14,1.37a112.74,112.74,0,0,1-.27,15.27c-1.45,14.51-4.68,28.5-12.74,41-4.44,6.87-10,12.48-18.1,15.35,7.22.6,14.42.42,21.61.45,7.34,0,14.68,0,22,0h66c-.06,1.12-.76,1.24-1.22,1.56a6.49,6.49,0,0,0-2.82,5.56c0,13.19,0,26.38,0,39.56a7.36,7.36,0,0,0,7.34,7.37c10.49.08,21,.06,31.47.06a8.45,8.45,0,0,0,6.78-2.89,2.91,2.91,0,0,1,2.39-1l78,0c.48,0,1.08-.36,1.43.25s-.24,1.1-.59,1.54c-1.55,1.92-3.13,3.83-4.66,5.76-.82,1-1.93,1-3.06,1H377.76q-116.53,0-233.07,0c-1.86,0-2.55.23-1.88,2.37a136.18,136.18,0,0,0,29.57,51.8c1.14,1.26,2.25,2.55,3.37,3.83ZM101.33,110l-.17.71c2.71,1.38,5.46,2.67,8.11,4.15,12.21,6.86,22.56,16,31.76,26.44,3.5,4,6.83,8.12,10.31,12.13a6.36,6.36,0,0,0,5.08,2.43c9.58-.13,19.17,0,28.75-.28a25.93,25.93,0,0,1,12.38,2.48,65,65,0,0,1,18.89,14.57A7,7,0,0,0,222,175c4.34,0,8.69.08,13,.08Q301.2,175,367.37,175A8.79,8.79,0,0,0,373,173c4.83-3.74,7.07-8.76,7.34-14.75.46-9.75-2.38-18.67-7.39-26.87C364.53,117.65,352.6,109.8,336,110q-11.79.15-23.59.15-103.92-.06-207.85-.17Zm84.9,75.24a91.87,91.87,0,0,1-2.68,23.82c-2.51,9.53-6,18.55-13.09,25.85-5.78,5.9-12.06,6.38-18.05.72s-9.58-13.09-12.15-20.91c-4.13-12.59-4.81-25.56-3.95-38.65a77.28,77.28,0,0,1,5.8-25.47c1-2.43.48-3.78-1-5.5-6.91-7.79-14.08-15.3-22.53-21.46-7.22-5.27-14.78-9.94-23.5-12.36-6.92-1.92-12.38,3.14-11,10.2.94,4.71,3.37,8.77,5.8,12.81a146,146,0,0,0,16.86,23.2,6.47,6.47,0,0,0,4.73,2.17,143.17,143.17,0,0,0,16.83-.32c1.51-.09,2.12.21,1.73,1.84a92.87,92.87,0,0,0-2,12.18,104.2,104.2,0,0,0,4.41,44.36c3.07,9.18,7.44,17.55,15,24a20.3,20.3,0,0,0,23.61,2.47,33.12,33.12,0,0,0,11.56-11.4c6-9.27,9.13-19.54,10.86-30.39a113.36,113.36,0,0,0-.35-37.08c-1.13-6.68-1.2-6.6-7.77-6.67-1.92,0-2.32.54-1.86,2.37A94.31,94.31,0,0,1,186.23,185.24Zm-39.55-.36a37.34,37.34,0,0,0,.85,8.7,25.66,25.66,0,0,0,5.41,11.91c3.92,4.54,9.67,4.8,13.74.55a17.67,17.67,0,0,0,3.64-5.36,39.29,39.29,0,0,0,.2-30.6,18.26,18.26,0,0,0-3-5c-4.55-5.35-10.77-5.24-15.06.32C148,171.16,146.89,177.89,146.68,184.88Z"/><path class="cls-3" d="M253.31,413a240.93,240.93,0,0,1-24.9-.47,273.13,273.13,0,0,1-98.23-24.76,237.44,237.44,0,0,1-65.95-44.75C45.42,325,30.3,304.23,19.69,280.32A172,172,0,0,1,5.08,222.74a175.23,175.23,0,0,1,6.37-62.66A186.41,186.41,0,0,1,38,105.21c17-24.31,38.48-43.94,63.46-59.8A255.48,255.48,0,0,1,165.6,16.28,287.33,287.33,0,0,1,280.24,6.21a276.91,276.91,0,0,1,44.89,8.84,265.23,265.23,0,0,1,58.46,24.39A238.51,238.51,0,0,1,427.18,71.2a204.14,204.14,0,0,1,34.19,40.52,181.22,181.22,0,0,1,25.1,60.17,173.71,173.71,0,0,1,2.28,61,176.52,176.52,0,0,1-13.47,47.09,211.57,211.57,0,0,1-14.87,27.37,3.29,3.29,0,0,1-3.14,1.66c-11.16,0-22.33,0-33.49,0-.7,0-1.67.37-2-.4s.46-1.34.91-1.9A170.43,170.43,0,0,0,444,272.48a149.82,149.82,0,0,0-5.11-137.76c-12.2-21.88-28.55-40.1-48.37-55.36a211,211,0,0,0-35.73-22.3,234.6,234.6,0,0,0-52.15-18.37A253.69,253.69,0,0,0,192,38.59a242.55,242.55,0,0,0-35.79,11,222.38,222.38,0,0,0-39.41,20.35,207.16,207.16,0,0,0-35.6,29.45c-2.25,2.31-4.22,4.83-6.32,7.24-1.93,2.22-4.17,4.07-5.93,6.55-9.39,13.25-17.61,27.1-23.37,42.33a149.78,149.78,0,0,0-5.19,89.6c5.91,23.22,16.86,43.87,32,62.41C89,328,109.4,344,132.54,356.52a227.2,227.2,0,0,0,52.19,20.27c3,.76,4.94,2.8,7.13,4.51a178.76,178.76,0,0,0,37.89,22.51,200.68,200.68,0,0,0,20.38,7.65A7.1,7.1,0,0,1,253.31,413Z"/><path class="cls-4" d="M314.86,317.77H468.79c4,0,4.07,0,2.56,3.66a108.14,108.14,0,0,1-15.16,25.28A152,152,0,0,1,430.7,372.1a174,174,0,0,1-21.52,14.46,195.63,195.63,0,0,1-22.56,10.84,210.21,210.21,0,0,1-27.82,9.09A200.87,200.87,0,0,1,310.39,412a217,217,0,0,1-40.27-4.46,178.09,178.09,0,0,1-25.59-7.44A171.86,171.86,0,0,1,210.44,383a152.14,152.14,0,0,1-25.95-21.29,139.44,139.44,0,0,1-16.2-20.24A133.1,133.1,0,0,1,158,322.56c-2.12-4.79-2-4.77,2.91-4.77H314.86Zm-7.45,23.05a50.22,50.22,0,0,1,.57,8c0,7.79,0,15.58,0,23.37,0,1.61.42,2.28,2.14,2.25,4.19-.09,8.39,0,12.59,0,1.44,0,2.14-.4,2.13-2.05q-.06-22.69,0-45.4c0-1.6-.54-2.31-2.22-2.3q-9.78.1-19.55,0a2.63,2.63,0,0,0-2.92,2.17c-.51,1.8-1.09,3.58-1.66,5.36q-2.5,7.8-5,15.58c-.19.57-.4,1.23-1.11,1.26s-1-.62-1.23-1.16c-.32-.76-.58-1.54-.83-2.32-2-6.11-4.06-12.21-6-18.35a2.88,2.88,0,0,0-3.21-2.37c-6.37.09-12.74.06-19.11,0-1.64,0-2.26.64-2.22,2.29.07,3.14,0,6.29,0,9.43,0,11.69.05,23.38,0,35.07,0,2.19.7,2.88,2.83,2.75,2.54-.16,5.09,0,7.64,0,2.75,0,2.94-.18,2.94-2.94q0-12.14,0-24.28a25.36,25.36,0,0,1,.58-6.25,9.43,9.43,0,0,1,1.21,2.05c.67,2.81,1.59,5.53,2.54,8.27,2.48,7.13,4.67,14.36,6.93,21.57.34,1.06.85,1.71,2,1.7,2.85,0,5.7,0,8.54,0a2,2,0,0,0,2.14-1.54c1.35-4.59,2.82-9.15,4.29-13.71C303.27,353.3,304.86,347.22,307.41,340.82Zm27.6,8.5h0q0,10.89,0,21.79c0,3.42.2,3.62,3.67,3.62h38.85c.53,0,1.06,0,1.57,0,1.25-.14,2-.56,1.89-2.12a63.16,63.16,0,0,1,0-7.41c.09-2.1-.61-2.82-2.84-2.77-7.1.16-14.22.06-21.33.08-1.74,0-3-.49-2.89-2.52,0-.67,0-1.34,0-2,0-2.53.51-3.05,3-3.06,5.46,0,10.93-.09,16.39,0,2.05.06,2.69-.82,2.67-2.62s0-3.44,0-5.16c0-4,0-4-4-4-5.09,0-10.18,0-15.27-.05-2.46,0-2.89-.89-2.81-4.24,0-1.93.95-2.78,2.77-2.64,6.28.48,12.56.08,18.84.21a23.74,23.74,0,0,0,3.57-.14c1.27-.18,1.63-.72,1.62-1.88,0-2.69,0-5.39,0-8.08,0-1.58-.48-2.15-2.21-2.09-6.26.22-12.52.36-18.78.31-7.48-.06-15,.44-22.43-.28-1.81-.17-2.34.7-2.33,2.39C335,334.2,335,341.76,335,349.32Zm-115.91,1a26.26,26.26,0,0,1,1.23-9.53c1.83-5.12,6.84-7.15,11.37-4.64,2.51,1.39,3.5,3.81,3.93,6.47.2,1.23.63,1.91,2,1.84,4.41-.19,8.83-.32,13.24-.51,1.23-.05,1.9-.51,1.67-2-1.05-6.56-4.34-11.7-10.16-14.79-7.23-3.86-15-4.08-23-2.5A22.63,22.63,0,0,0,204,335.34c-3.72,6-4.31,12.64-3.43,19.48a21.47,21.47,0,0,0,11.33,16.83c8.22,4.54,17.05,4.89,25.89,2.2,7.49-2.27,12.71-7.07,14.55-15,.41-1.76,0-2.49-1.83-2.54-3.66-.1-7.33-.24-11-.56-2.36-.2-3.68.37-4.28,2.93-.77,3.22-3.27,4.94-6.54,5.17-3.5.25-6.33-.75-8-4.08C219.2,356.75,219.15,353.54,219.1,350.32Zm169.65-.62h0c0,7.41,0,14.83,0,22.24,0,1.84.62,2.56,2.47,2.52q6.4-.1,12.81,0c1.78,0,2.33-.7,2.3-2.41-.09-4.5-.07-9,0-13.49,0-2.52.53-3,3.09-3,4.57,0,9.14-.07,13.71,0,2.08.05,2.84-.8,2.72-2.8a44.4,44.4,0,0,1,0-5.16c.11-2-.81-2.65-2.68-2.62-3.89.06-7.79,0-11.68,0-5.14,0-5.14,0-5.12-5,0-3.77.11-3.85,4-3.84,6.22,0,12.44,0,18.65,0,2,0,2.89-.67,2.74-2.76a40.65,40.65,0,0,1,0-5.84c.13-2.09-.73-2.71-2.76-2.69-12.36.07-24.72,0-37.08,0-2.67,0-3,.31-3,3C388.73,335.17,388.75,342.43,388.75,349.7Z"/><path class="cls-1" d="M101.33,110h3.26q103.92.09,207.85.17,11.79,0,23.59-.15c16.57-.22,28.5,7.63,36.88,21.38,5,8.2,7.85,17.12,7.39,26.87-.27,6-2.51,11-7.34,14.75a8.79,8.79,0,0,1-5.59,1.93q-66.18,0-132.35.15c-4.34,0-8.69-.11-13-.08a7,7,0,0,1-5.55-2.39,65,65,0,0,0-18.89-14.57,25.93,25.93,0,0,0-12.38-2.48c-9.58.24-19.17.15-28.75.28a6.36,6.36,0,0,1-5.08-2.43c-3.48-4-6.81-8.14-10.31-12.13-9.2-10.47-19.55-19.58-31.76-26.44-2.65-1.48-5.4-2.77-8.11-4.15Z"/><path class="cls-1" d="M186.22,185.24A93.87,93.87,0,0,0,183.5,161c-.46-1.83-.06-2.38,1.86-2.37,6.57.07,6.64,0,7.77,6.67a113.36,113.36,0,0,1,.35,37.08c-1.73,10.85-4.9,21.12-10.86,30.39a33.12,33.12,0,0,1-11.56,11.4,20.3,20.3,0,0,1-23.61-2.47c-7.58-6.42-11.95-14.79-15-24A104.2,104.2,0,0,1,128,173.36a92.87,92.87,0,0,1,2-12.18c.39-1.63-.22-1.93-1.73-1.84a143.17,143.17,0,0,1-16.83.32,6.47,6.47,0,0,1-4.73-2.17,146,146,0,0,1-16.86-23.2c-2.43-4-4.86-8.1-5.8-12.81-1.41-7.06,4.05-12.12,11-10.2,8.72,2.42,16.28,7.09,23.5,12.36,8.45,6.16,15.62,13.67,22.53,21.46,1.52,1.72,2.07,3.07,1,5.5a77.28,77.28,0,0,0-5.8,25.47c-.86,13.09-.18,26.06,3.95,38.65,2.57,7.82,6.05,15.14,12.15,20.91s12.27,5.18,18.05-.72c7.13-7.3,10.58-16.32,13.09-25.85A91.43,91.43,0,0,0,186.22,185.24Z"/><path class="cls-1" d="M146.68,184.88c.21-7,1.34-13.72,5.75-19.45,4.29-5.56,10.51-5.67,15.06-.32a18.26,18.26,0,0,1,3,5,39.29,39.29,0,0,1-.2,30.6,17.67,17.67,0,0,1-3.64,5.36c-4.07,4.25-9.82,4-13.74-.55a25.66,25.66,0,0,1-5.41-11.91A37.34,37.34,0,0,1,146.68,184.88Z"/><path class="cls-2" d="M307.41,340.82c-2.55,6.4-4.14,12.48-6.06,18.45-1.47,4.56-2.94,9.12-4.29,13.71a2,2,0,0,1-2.14,1.54c-2.84,0-5.69,0-8.54,0-1.17,0-1.68-.64-2-1.7-2.26-7.21-4.45-14.44-6.93-21.57-.95-2.74-1.87-5.46-2.54-8.27a9.43,9.43,0,0,0-1.21-2.05,25.36,25.36,0,0,0-.58,6.25q0,12.15,0,24.28c0,2.76-.19,2.93-2.94,2.94-2.55,0-5.1-.12-7.64,0-2.13.13-2.85-.56-2.83-2.75.09-11.69,0-23.38,0-35.07,0-3.14.08-6.29,0-9.43,0-1.65.58-2.3,2.22-2.29,6.37,0,12.74.07,19.11,0a2.88,2.88,0,0,1,3.21,2.37c1.94,6.14,4,12.24,6,18.35.25.78.51,1.56.83,2.32.24.54.52,1.19,1.23,1.16s.92-.69,1.11-1.26q2.52-7.79,5-15.58c.57-1.78,1.15-3.56,1.66-5.36a2.63,2.63,0,0,1,2.92-2.17q9.78.07,19.55,0c1.68,0,2.22.7,2.22,2.3q-.07,22.69,0,45.4c0,1.65-.69,2.06-2.13,2.05-4.2,0-8.4-.1-12.59,0-1.72,0-2.16-.64-2.14-2.25.06-7.79,0-15.58,0-23.37A50.22,50.22,0,0,0,307.41,340.82Z"/><path class="cls-2" d="M335,349.32c0-7.56,0-15.12,0-22.68,0-1.69.52-2.56,2.33-2.39,7.47.72,14.95.22,22.43.28,6.26.05,12.52-.09,18.78-.31,1.73-.06,2.24.51,2.21,2.09-.06,2.69-.06,5.39,0,8.08,0,1.16-.35,1.7-1.62,1.88a23.74,23.74,0,0,1-3.57.14c-6.28-.13-12.56.27-18.84-.21-1.82-.14-2.73.71-2.77,2.64-.08,3.35.35,4.2,2.81,4.24,5.09.07,10.18.05,15.27.05,4,0,4,0,4,4,0,1.72,0,3.44,0,5.16s-.62,2.68-2.67,2.62c-5.46-.13-10.93-.06-16.39,0-2.5,0-3,.53-3,3.06,0,.68,0,1.35,0,2-.07,2,1.15,2.53,2.89,2.52,7.11,0,14.23.08,21.33-.08,2.23,0,2.93.67,2.84,2.77a63.16,63.16,0,0,0,0,7.41c.11,1.56-.64,2-1.89,2.12-.51.05-1,0-1.57,0H338.71c-3.47,0-3.67-.2-3.67-3.62q0-10.89,0-21.79Z"/><path class="cls-2" d="M219.1,350.32c.05,3.22.1,6.43,1.61,9.42,1.69,3.33,4.52,4.33,8,4.08,3.27-.23,5.77-1.95,6.54-5.17.6-2.56,1.92-3.13,4.28-2.93,3.65.32,7.32.46,11,.56,1.88.05,2.24.78,1.83,2.54-1.84,8-7.06,12.76-14.55,15-8.84,2.69-17.67,2.34-25.89-2.2a21.47,21.47,0,0,1-11.33-16.83c-.88-6.84-.29-13.47,3.43-19.48a22.63,22.63,0,0,1,15.4-10.67c7.91-1.58,15.72-1.36,23,2.5,5.82,3.09,9.11,8.23,10.16,14.79.23,1.48-.44,1.94-1.67,2-4.41.19-8.83.32-13.24.51-1.36.07-1.79-.61-2-1.84-.43-2.66-1.42-5.08-3.93-6.47-4.53-2.51-9.54-.48-11.37,4.64A26.26,26.26,0,0,0,219.1,350.32Z"/><path class="cls-2" d="M388.75,349.7c0-7.27,0-14.53,0-21.79,0-2.64.36-3,3-3,12.36,0,24.72,0,37.08,0,2,0,2.89.6,2.76,2.69a40.65,40.65,0,0,0,0,5.84c.15,2.09-.73,2.78-2.74,2.76-6.21-.07-12.43,0-18.65,0-3.85,0-3.94.07-4,3.84,0,5,0,5,5.12,5,3.89,0,7.79.05,11.68,0,1.87,0,2.79.62,2.68,2.62a44.4,44.4,0,0,0,0,5.16c.12,2-.64,2.85-2.72,2.8-4.57-.11-9.14-.06-13.71,0-2.56,0-3.07.47-3.09,3,0,4.5-.06,9,0,13.49,0,1.71-.52,2.44-2.3,2.41q-6.4-.12-12.81,0c-1.85,0-2.49-.68-2.47-2.52.06-7.41,0-14.83,0-22.24Z"/></svg>